<svg width="50" height="50" xmlns="http://www.w3.org/2000/svg" xmlns:xlink="http://www.w3.org/1999/xlink" overflow="hidden"><defs><clipPath id="clip0"><rect x="0" y="0" width="50" height="50"/></clipPath></defs><g clip-path="url(#clip0)"><path d="M25.007 12.1835C17.9284 12.1824 12.1891 17.9199 12.188 24.9985 12.1869 32.0771 17.9244 37.8164 25.003 37.8175 32.0816 37.8186 37.8209 32.0811 37.822 25.0025 37.822 25.0008 37.822 24.9992 37.822 24.9975 37.8297 17.9283 32.1053 12.1912 25.036 12.1835 25.0263 12.1835 25.0167 12.1835 25.007 12.1835ZM25.007 33.3325C20.4054 33.3331 16.6746 29.6031 16.674 25.0015 16.6734 20.3999 20.4034 16.6691 25.005 16.6685 29.6059 16.6679 33.3363 20.3966 33.338 24.9975 33.3308 29.5963 29.6058 33.3231 25.007 33.3325ZM41.337 11.6595C41.337 13.3103 39.9988 14.6485 38.348 14.6485 36.6972 14.6485 35.359 13.3103 35.359 11.6595 35.359 10.0087 36.6972 8.6705 38.348 8.6705 39.9949 8.66773 41.3322 10.0006 41.335 11.6475 41.335 11.6515 41.335 11.6555 41.335 11.6595ZM49.824 14.6975C49.634 10.6975 48.724 7.1455 45.786 4.2235 42.848 1.3015 39.316 0.3865 35.312 0.1855 31.185-0.0485001 18.812-0.0485001 14.687 0.1855 10.694 0.3755 7.147 1.2855 4.213 4.2125 1.279 7.1395 0.376 10.6775 0.175 14.6815-0.059 18.8085-0.059 31.1815 0.175 35.3065 0.365 39.3065 1.275 42.8585 4.213 45.7805 7.151 48.7025 10.683 49.6175 14.687 49.8185 18.814 50.0525 31.187 50.0525 35.312 49.8185 39.312 49.6285 42.864 48.7185 45.786 45.7805 48.708 42.8425 49.623 39.3105 49.824 35.3065 50.058 31.1795 50.058 18.8205 49.824 14.6975ZM44.492 39.7345C43.6345 41.9083 41.9138 43.629 39.74 44.4865 36.449 45.7915 28.64 45.4865 25.005 45.4865 21.37 45.4865 13.549 45.7765 10.27 44.4865 8.09621 43.629 6.37547 41.9083 5.518 39.7345 4.213 36.4435 4.518 28.6345 4.518 24.9995 4.518 21.3645 4.228 13.5435 5.518 10.2645 6.37547 8.09071 8.09621 6.36997 10.27 5.5125 13.561 4.2075 21.37 4.5125 25.005 4.5125 28.64 4.5125 36.461 4.2225 39.74 5.5125 41.9138 6.36997 43.6345 8.09071 44.492 10.2645 45.797 13.5555 45.492 21.3645 45.492 24.9995 45.492 28.6345 45.797 36.4555 44.492 39.7345Z"/></g></svg>