<svg width="50" height="50" xmlns="http://www.w3.org/2000/svg" xmlns:xlink="http://www.w3.org/1999/xlink" overflow="hidden"><defs><clipPath id="clip0"><rect x="0" y="0" width="50" height="50"/></clipPath></defs><g clip-path="url(#clip0)"><path d="M11.192 49.9995 0.826 49.9995 0.826 16.6175 11.192 16.6175ZM6 12.0645C2.66867 12.0821-0.0462131 9.39585-0.0638501 6.06452-0.0814871 2.73318 2.6048 0.0183056 5.93613 0.000668569 9.26747-0.0169684 11.9823 2.66931 12 6.00065 12 6.00193 12 6.00322 12 6.0045 12.0034 9.32939 9.32476 12.0348 6 12.0645ZM49.989 49.9995 39.645 49.9995 39.645 33.7495C39.645 29.8765 39.567 24.9105 34.255 24.9105 28.865 24.9105 28.04 29.1185 28.04 33.4705L28.04 49.9995 17.685 49.9995 17.685 16.6175 27.627 16.6175 27.627 21.1715 27.772 21.1715C29.7975 17.7038 33.5668 15.632 37.58 15.7805 48.071 15.7805 50 22.6895 50 31.6625L50 49.9995Z"/></g></svg>