<svg width="132" height="57" xmlns="http://www.w3.org/2000/svg" xmlns:xlink="http://www.w3.org/1999/xlink" overflow="hidden"><defs><clipPath id="clip0"><rect x="0" y="0" width="132" height="57"/></clipPath></defs><g clip-path="url(#clip0)"><path d="M57.4507 173.861C56.8363 174.079 56.2726 174.419 55.7939 174.861 54.1371 176.393 54.1371 176.454 54.1371 188.304 54.1371 198.683 54.1684 199.402 54.7629 200.34 56.0375 202.589 58.8943 203.379 61.1438 202.105 61.5746 201.861 61.9638 201.55 62.2972 201.184L63.36 200.09 63.4539 188.773C63.5165 178.987 63.4852 177.3 63.0476 176.362 62.0136 174.305 59.6749 173.258 57.4519 173.859Z" transform="matrix(1 0 0 1.00182 -54.0529 -173.914)"/><path d="M104.43 173.985C103.211 174.485 55.3177 222.097 54.5365 223.566 52.6919 227.037 56.4437 231.288 60.2574 230.069 61.2247 229.757 66.2281 224.911 85.767 205.403 112.308 178.925 111.464 179.863 110.683 177.112 110.245 175.518 109.463 174.673 107.806 173.954 106.369 173.392 105.837 173.392 104.43 173.986Z" transform="matrix(1 0 0 1.00182 -54.0142 -173.851)"/><path d="M219.1 176.361C215.41 177.361 210.877 180.519 208.783 183.551 206.001 187.583 205.813 194.086 208.346 198.712 210.002 201.776 213.816 204.59 218.287 206.059 221.382 207.059 224.352 207.497 230.198 207.778 236.919 208.091 238.795 208.404 241.452 209.656 243.859 210.813 245.047 212.501 245.047 214.751 245.047 217.721 243.578 219.41 239.826 220.753 237.356 221.66 236.388 222.504 235.95 224.13 235.473 225.682 235.853 227.37 236.95 228.568 238.828 230.693 241.546 230.568 246.111 228.161 253.02 224.535 256.145 217.345 253.895 210.125 253.229 207.932 251.975 205.964 250.268 204.436 246.047 200.434 241.202 198.934 230.948 198.434 224.383 198.092 222.289 197.777 219.881 196.683 217.255 195.495 215.974 193.682 215.974 191.181 215.974 188.711 217.349 187.211 221.351 185.304 223.351 184.366 224.196 183.772 224.696 182.959 225.887 180.912 225.317 178.294 223.383 176.928 222.128 176.065 220.535 175.856 219.1 176.365Z" transform="matrix(1 0 0 1.00182 -122.729 -175.009)"/><path d="M261.874 176.372C259.698 177.693 259.005 180.528 260.325 182.703 260.596 183.149 260.94 183.545 261.342 183.875 261.764 184.284 262.264 184.603 262.811 184.813 264.261 185.163 265.691 185.591 267.094 186.095 272.596 187.877 274.128 187.533 275.597 184.217 276.879 181.404 275.472 179.184 271.439 177.621 266.344 175.652 263.624 175.308 261.873 176.37Z" transform="matrix(1 0 0 1.00182 -146.652 -174.865)"/><path d="M126.538 242.619C125.381 242.838 123.474 244.964 123.224 246.246 122.787 248.622 123.287 249.372 129.039 255.122 132.009 258.061 134.885 260.686 135.448 260.968 137.887 262.187 140.825 260.811 141.825 257.967 142.607 255.685 142.013 254.716 136.386 249.026 133.604 246.244 130.916 243.678 130.384 243.368 129.228 242.679 127.869 242.414 126.539 242.617Z" transform="matrix(1 0 0 1.00182 -85.1252 -204.996)"/><path d="M3.0757 0.363053C0.967382 1.22345-0.414267 3.7119 0.11381 5.67796 0.543196 7.06011 1.53466 8.19762 2.84524 8.81171 4.62352 9.64138 8.90389 10.8392 12.3609 11.4538 15.3569 11.9762 15.3899 11.9762 16.8057 11.3309 18.6164 10.5012 19.4398 9.42628 19.6043 7.64402 19.8677 4.94047 17.958 3.09733 14.1056 2.35984 13.1177 2.17547 10.7482 1.53017 8.87032 0.977055 5.08444-0.158764 4.5245-0.220222 3.0757 0.363053Z" transform="matrix(0.999855 0.0170284 -0.0169975 1.00167 84.5392 43.2459)"/></g></svg>