<svg width="50" height="50" xmlns="http://www.w3.org/2000/svg" xmlns:xlink="http://www.w3.org/1999/xlink" xml:space="preserve" overflow="hidden"><defs><clipPath id="clip0"><rect x="0" y="0" width="50" height="50"/></clipPath></defs><g clip-path="url(#clip0)"><path d="M48.574 35.331 37.636 30.644C36.6762 30.2353 35.5618 30.51 34.902 31.318L30.058 37.236C22.4583 33.6519 16.3421 27.5357 12.758 19.936L18.676 15.092C19.4858 14.4333 19.7609 13.3176 19.35 12.358L14.658 1.416C14.205 0.377614 13.0777-0.192087 11.973 0.0590001L1.816 2.399C0.751355 2.64514-0.001977 3.59427-1.52588e-08 4.687-0.00220931 29.7099 20.2811 49.9968 45.304 49.999 45.307 49.999 45.31 49.999 45.313 49.999 46.4054 50.0005 47.3539 49.2473 47.6 48.183L49.944 38.027C50.1937 36.916 49.6186 35.7843 48.574 35.331Z"/></g></svg>