<svg width="51" height="50" xmlns="http://www.w3.org/2000/svg" xmlns:xlink="http://www.w3.org/1999/xlink" overflow="hidden"><defs><clipPath id="clip0"><rect x="0" y="0" width="51" height="50"/></clipPath></defs><g clip-path="url(#clip0)"><path d="M17.058 40.1764C17.058 40.3822 16.8213 40.5463 16.523 40.5463 16.1838 40.5772 15.9471 40.4131 15.9471 40.1764 15.9471 39.9705 16.1838 39.8064 16.4822 39.8064 16.7915 39.7756 17.058 39.9367 17.058 40.1764ZM13.8606 39.7139C13.789 39.9198 13.9939 40.1565 14.3032 40.2182 14.5365 40.3323 14.8183 40.2413 14.9407 40.0123 15.0023 39.8064 14.8074 39.5697 14.4981 39.4772 14.2563 39.3906 13.9873 39.4905 13.8606 39.7139ZM18.4056 39.5389C18.1072 39.6105 17.9014 39.8064 17.9322 40.0431 17.963 40.249 18.2306 40.3822 18.5389 40.3106 18.8472 40.239 19.0431 40.0431 19.0122 39.8372 18.9814 39.6314 18.7039 39.5081 18.4056 39.5389ZM25.1713 0.13699C10.9099 0.13699 0 10.9643 0 25.2258-0.0886681 36.3207 6.93172 46.2277 17.429 49.8212 18.7447 50.0579 19.2082 49.2454 19.2082 48.5771 19.2082 47.9396 19.1773 44.423 19.1773 42.2639 19.1773 42.2639 11.98 43.8064 10.4683 39.1998 10.4683 39.1998 9.29578 36.2072 7.61007 35.4365 7.61007 35.4365 5.25505 33.8224 7.77417 33.8532 9.43585 34.0769 10.9009 35.0559 11.7433 36.5056 13.9949 40.4747 17.7691 39.333 19.239 38.6548 19.372 37.3447 19.9534 36.1207 20.8849 35.1899 15.1356 34.5524 9.33656 33.719 9.33656 23.8255 9.22068 21.5489 10.1074 19.3356 11.7632 17.7688 10.9835 15.489 11.0788 13.0008 12.0307 10.7873 14.1799 10.119 19.1256 13.564 19.1256 13.564 23.3517 12.3986 27.8144 12.3986 32.0405 13.564 32.0405 13.564 36.9862 10.109 39.1354 10.7873 40.0877 13.0007 40.183 15.4891 39.4029 17.7688 41.0478 19.5888 42.0553 21.008 42.0553 23.8255 42.0553 33.7478 35.9987 34.5394 30.2513 35.1879 31.5033 36.4474 32.142 38.1914 31.9997 39.9616 31.9997 43.4265 31.9689 47.7188 31.9689 48.5572 31.9689 49.2255 32.4422 50.038 33.7481 49.8014 44.2156 46.2123 51.1814 36.291 51.002 25.2268 51 10.9643 39.4327 0.13699 25.1713 0.13699ZM9.99393 35.6006C9.86067 35.7 9.89448 35.9397 10.0655 36.1356 10.2296 36.2997 10.4633 36.3723 10.6006 36.2351 10.7339 36.1356 10.7 35.896 10.529 35.7 10.3649 35.5389 10.1282 35.4673 9.99393 35.6006ZM8.88405 34.7652C8.81244 34.8985 8.91488 35.0636 9.12075 35.163 9.25433 35.2668 9.44677 35.2426 9.55056 35.1091 9.55502 35.1033 9.55927 35.0974 9.56331 35.0914 9.63491 34.9581 9.53248 34.793 9.32661 34.6936 9.12075 34.6339 8.95566 34.6657 8.88405 34.7652ZM12.2157 38.426C12.0516 38.5593 12.1162 38.8686 12.349 39.0635 12.5857 39.3002 12.884 39.331 13.0173 39.163 13.1505 39.0297 13.0889 38.7204 12.884 38.5255 12.6573 38.2947 12.349 38.2639 12.2157 38.429ZM11.0392 36.9173C10.8751 37.0168 10.8751 37.2873 11.0392 37.524 11.2033 37.7607 11.4817 37.8631 11.615 37.7607 11.7814 37.5808 11.7814 37.3031 11.615 37.1232 11.4748 36.8865 11.2072 36.7831 11.0392 36.9173Z"/></g></svg>