<svg width="339" height="242" xmlns="http://www.w3.org/2000/svg" xmlns:xlink="http://www.w3.org/1999/xlink" overflow="hidden"><defs><clipPath id="clip0"><rect x="0" y="0" width="339" height="242"/></clipPath></defs><g clip-path="url(#clip0)"><path d="M280.109 0C285.518-3.47953e-15 289.903 4.38493 289.903 9.79402L289.903 158.782C289.903 164.191 285.518 168.576 280.109 168.576L9.79402 168.576C4.38493 168.576 0 164.191 0 158.782L0 9.79402C-1.73977e-15 4.38493 4.38493 1.86806e-06 9.79402 1.86806e-06Z" fill="#FFFFFF" transform="matrix(1.00001 0 0 1 4.04057 0.298028)"/><path d="M280.109 0.24485C285.383 0.24485 289.658 4.52016 289.658 9.79402L289.658 158.782C289.658 164.055 285.383 168.331 280.109 168.331L9.79402 168.331C4.52016 168.331 0.24485 164.055 0.24485 158.782L0.24485 9.79402C0.24485 4.52016 4.52016 0.244852 9.79402 0.244852Z" stroke="#707070" stroke-width="0.489701" fill="none" transform="matrix(1.00001 0 0 1 4.04057 0.298028)"/><path d="M0 168.576 289.903 0" stroke="#707070" stroke-width="0.489701" fill="none" transform="matrix(1.00001 0 0 1 0.122916 0.298028)"/><path d="M0 0 289.903 168.576" stroke="#707070" stroke-width="0.489701" fill="none" transform="matrix(1.00001 0 0 1 0.122916 0.298028)"/><path d="M84.2286 0C89.6376-3.47953e-15 94.0226 4.38493 94.0226 9.79402L94.0226 136.02C94.0226 141.429 89.6376 145.814 84.2286 145.814L9.79402 145.814C4.38493 145.814 0 141.429 0 136.02L0 9.79401C-1.73977e-15 4.38492 4.38493-6.53821e-06 9.79402-6.53821e-06Z" fill="#FFFFFF" transform="matrix(1.00001 0 0 1 244.976 95.967)"/><path d="M84.2286 0.24485C89.5024 0.24485 93.7777 4.52016 93.7777 9.79402L93.7777 136.02C93.7777 141.294 89.5024 145.569 84.2286 145.569L9.79402 145.569C4.52016 145.569 0.24485 141.294 0.24485 136.02L0.24485 9.79401C0.24485 4.52015 4.52016 0.244844 9.79402 0.244844Z" stroke="#707070" stroke-width="0.489701" fill="none" transform="matrix(1.00001 0 0 1 244.976 95.967)"/><path d="M0 0 94.0226 145.814" stroke="#707070" stroke-width="0.489701" fill="none" transform="matrix(1.00001 0 0 1 241.059 95.967)"/><path d="M0 145.814 94.0226 0" stroke="#707070" stroke-width="0.489701" fill="none" transform="matrix(1.00001 0 0 1 241.059 95.967)"/></g></svg>