<svg width="409" height="335" xmlns="http://www.w3.org/2000/svg" xmlns:xlink="http://www.w3.org/1999/xlink" xml:space="preserve" overflow="hidden"><defs><clipPath id="clip0"><rect x="0" y="0" width="409" height="335"/></clipPath></defs><g clip-path="url(#clip0)"><path d="M346 0C351.523-3.55271e-15 356 4.47715 356 10L356 238C356 243.523 351.523 248 346 248L10 248C4.47715 248 0 243.523 0 238L0 10C-1.77636e-15 4.47715 4.47715-1.77636e-15 10-3.55271e-15Z" fill="#F5F5F5"/><path d="M346 0.5C351.247 0.5 355.5 4.75329 355.5 10L355.5 238C355.5 243.247 351.247 247.5 346 247.5L10 247.5C4.75329 247.5 0.5 243.247 0.5 238L0.5 10C0.5 4.75329 4.75329 0.5 10 0.5Z" stroke="#707070" fill="none"/><text fill="#707070" font-family="Arial,Arial_MSFontService,sans-serif" font-weight="700" font-size="36" transform="translate(85 138)">desktop</text><path d="M399 161C404.523 161 409 165.477 409 171L409 325C409 330.523 404.523 335 399 335L313 335C307.477 335 303 330.523 303 325L303 171C303 165.477 307.477 161 313 161Z" fill="#F5F5F5"/><path d="M399 161.5C404.247 161.5 408.5 165.753 408.5 171L408.5 325C408.5 330.247 404.247 334.5 399 334.5L313 334.5C307.753 334.5 303.5 330.247 303.5 325L303.5 171C303.5 165.753 307.753 161.5 313 161.5Z" stroke="#707070" fill="none"/><text fill="#707070" font-family="Arial,Arial_MSFontService,sans-serif" font-weight="700" font-size="21" transform="translate(322 256)">mobile</text></g></svg>