<svg width="50" height="50" xmlns="http://www.w3.org/2000/svg" xmlns:xlink="http://www.w3.org/1999/xlink" overflow="hidden"><defs><clipPath id="clip0"><rect x="0" y="0" width="50" height="50"/></clipPath></defs><g clip-path="url(#clip0)"><path d="M25 0C11.1929 0 0 11.1929 7.10543e-15 25 7.10543e-15 38.8071 11.1929 50 25 50 38.8071 50 50 38.8071 50 25 49.995 11.1949 38.8051 0.00496536 25-1.78814e-06ZM35.151 36.785C34.7629 36.7757 34.3868 36.6491 34.072 36.422 27.782 32.632 20.463 32.47 13.235 33.952 12.8442 34.077 12.4424 34.1647 12.035 34.214 11.1686 34.2263 10.4562 33.5338 10.4439 32.6674 10.4437 32.6513 10.4437 32.6351 10.444 32.619 10.3864 31.7823 10.9846 31.0431 11.815 30.925 20.071 29.1 28.509 29.262 35.706 33.566 36.3454 33.8638 36.7346 34.5255 36.684 35.229 36.7022 36.0699 36.0353 36.7664 35.1944 36.7847 35.1799 36.785 35.1655 36.7851 35.151 36.785ZM37.863 30.172C37.4193 30.1443 36.9911 29.9982 36.623 29.749 30.323 26.019 20.923 24.517 12.571 26.785 12.1862 26.9313 11.7818 27.0196 11.371 27.047 10.291 27.0464 9.41555 26.171 9.415 25.091 9.34103 24.1028 10.008 23.2116 10.977 23.004 14.178 22.0645 17.5001 21.6025 20.836 21.633 27.0848 21.5548 33.2423 23.1374 38.679 26.219 39.4179 26.5976 39.8643 27.376 39.818 28.205 39.8257 29.2836 38.9576 30.1642 37.8791 30.172 37.8737 30.172 37.8684 30.172 37.863 30.172ZM40.988 22.491C40.5251 22.4927 40.0724 22.3559 39.688 22.098 32.511 17.814 19.678 16.785 11.371 19.104 10.9519 19.2512 10.5144 19.3394 10.071 19.366 8.78589 19.3785 7.734 18.3468 7.72153 17.0617 7.72128 17.0368 7.72144 17.0119 7.722 16.987 7.6702 15.8723 8.39923 14.871 9.476 14.578 13.3319 13.509 17.32 12.9932 21.321 13.046 28.68 13.046 36.392 14.578 42.027 17.865 42.8799 18.2929 43.3924 19.191 43.327 20.143 43.3331 21.4331 42.2921 22.4839 41.002 22.49 40.9974 22.49 40.9927 22.49 40.988 22.49Z"/></g></svg>