<svg width="55" height="45" xmlns="http://www.w3.org/2000/svg" xmlns:xlink="http://www.w3.org/1999/xlink" overflow="hidden"><defs><clipPath id="clip0"><rect x="0" y="0" width="55" height="45"/></clipPath></defs><g clip-path="url(#clip0)"><path d="M49.347 11.298C49.382 11.787 49.382 12.275 49.382 12.764 49.382 27.664 38.04 44.836 17.31 44.836 11.1729 44.8517 5.16199 43.0943-5.34058e-07 39.775 0.903827 39.8747 1.81271 39.9214 2.722 39.915 7.7953 39.9277 12.725 38.2312 16.716 35.099 11.8942 35.0112 7.66031 31.8708 6.177 27.282 6.8813 27.3933 7.59297 27.4515 8.306 27.456 9.30687 27.453 10.3034 27.324 11.272 27.072 6.00887 26.0075 2.22692 21.3787 2.233 16.009L2.233 15.87C3.79637 16.7425 5.54394 17.2328 7.333 17.301 2.3646 13.99 0.83344 7.38288 3.839 2.224 9.56406 9.27329 18.0115 13.5621 27.081 14.024 26.9002 13.1751 26.8067 12.3099 26.802 11.442 26.8057 5.21057 31.8603 0.161997 38.0917 0.165694 41.2048 0.167541 44.1789 1.45559 46.31 3.725 48.8343 3.23885 51.255 2.31782 53.464 1.003 52.6233 3.60797 50.8612 5.81674 48.508 7.215 50.7469 6.96023 52.9351 6.37206 55 5.47 53.4569 7.71678 51.5457 9.6871 49.347 11.298Z"/></g></svg>