<?xml version="1.0" standalone="no"?>
<!DOCTYPE svg PUBLIC "-//W3C//DTD SVG 20010904//EN"
 "http://www.w3.org/TR/2001/REC-SVG-20010904/DTD/svg10.dtd">
<svg version="1.0" xmlns="http://www.w3.org/2000/svg"
 width="2112.000000pt" height="2112.000000pt" viewBox="0 0 2112.000000 2112.000000"
 preserveAspectRatio="xMidYMid meet">
<metadata>
Created by potrace 1.14, written by Peter Selinger 2001-2017
</metadata>
<g transform="translate(0.000000,2112.000000) scale(0.100000,-0.100000)"
fill="#000000" stroke="none">
<path d="M8205 15099 c-38 -11 -74 -24 -79 -30 -6 -5 -18 -9 -27 -9 -16 0 -96
-58 -145 -105 -12 -11 -70 -65 -130 -120 -60 -55 -141 -131 -181 -170 -39 -38
-135 -131 -213 -205 -569 -545 -1676 -1633 -3082 -3030 -407 -404 -741 -734
-743 -732 -2 2 -6 -6 -10 -17 -3 -12 -10 -21 -14 -21 -10 0 -225 -216 -229
-230 -2 -6 -9 -10 -15 -11 -7 0 -34 -27 -62 -59 -27 -32 -52 -59 -55 -59 -8
-1 -1800 -1800 -1800 -1806 0 -1 -98 -100 -217 -222 -380 -385 -630 -643 -958
-987 -120 -126 -156 -173 -190 -246 -57 -124 -62 -370 -9 -472 8 -15 12 -28 9
-28 -8 0 43 -98 84 -160 41 -63 186 -210 207 -210 8 0 14 -4 14 -8 0 -5 36
-27 80 -50 69 -36 136 -59 230 -79 44 -10 255 -4 255 7 0 1 9 3 19 5 11 2 31
7 45 10 27 7 137 82 183 125 15 14 40 35 55 47 15 12 46 39 69 60 23 21 83 76
134 123 101 93 115 106 374 355 914 877 5825 5784 6439 6434 27 28 53 51 59
51 6 0 9 3 6 6 -4 3 17 29 45 58 46 47 181 193 248 267 115 128 164 183 210
239 29 36 64 76 76 90 13 14 23 28 23 32 0 3 6 13 13 20 26 28 67 87 67 97 0
6 4 11 9 11 12 0 79 130 96 187 16 54 13 161 -7 223 -8 25 -21 65 -28 90 -8
25 -16 50 -19 55 -3 6 -6 15 -7 21 -3 19 -54 117 -70 135 -8 8 -14 19 -14 23
0 15 -116 122 -170 157 -201 131 -417 183 -575 138z"/>
<path d="M650 15099 c-57 -9 -94 -17 -97 -20 -2 -1 -6 -2 -11 -3 -22 -3 -102
-41 -102 -48 0 -4 -9 -8 -20 -8 -11 0 -20 -3 -20 -8 0 -4 -16 -16 -36 -27 -46
-25 -195 -170 -228 -223 -14 -22 -28 -52 -32 -66 -3 -14 -11 -26 -17 -26 -6 0
-8 -2 -5 -6 3 -3 -1 -26 -8 -52 -8 -25 -17 -69 -20 -97 -3 -27 -7 -63 -10 -80
-22 -177 -25 -364 -26 -1685 0 -1169 3 -1524 16 -1626 3 -21 8 -57 10 -79 10
-77 29 -140 58 -188 15 -26 28 -50 28 -53 0 -10 73 -98 117 -141 62 -60 174
-134 199 -132 4 0 10 -3 13 -8 6 -9 92 -42 126 -49 89 -17 122 -21 196 -19
101 3 131 9 229 41 122 41 210 103 353 248 l127 130 1 135 c0 75 1 351 2 613
1 263 6 478 10 478 4 0 3 8 -2 19 -6 10 -7 21 -4 25 10 9 12 2057 2 2083 -5
13 -4 25 2 28 5 4 6 11 3 17 -4 5 -8 44 -10 86 -6 132 -20 231 -41 279 -7 18
-11 33 -8 33 3 0 1 6 -5 13 -6 6 -28 40 -49 73 -109 172 -313 306 -516 338
-65 11 -177 13 -225 5z"/>
<path d="M18766 14923 c-1 -2 -29 -5 -62 -8 -94 -9 -251 -61 -262 -87 -2 -5
-9 -8 -15 -8 -22 0 -151 -118 -200 -182 -34 -45 -77 -119 -77 -133 0 -7 -4
-16 -9 -19 -5 -3 -14 -27 -21 -53 -7 -27 -14 -52 -16 -58 -13 -46 -16 -73 -19
-164 -4 -165 35 -298 125 -431 52 -77 210 -229 238 -230 6 0 12 -4 12 -8 0
-11 125 -69 165 -77 17 -4 37 -9 45 -12 8 -4 20 -7 25 -8 15 -2 61 -15 140
-38 39 -11 75 -21 80 -22 6 -1 17 -4 25 -7 17 -6 282 -92 290 -94 3 0 14 -4
25 -8 41 -16 168 -56 225 -72 137 -37 285 -74 316 -78 22 -4 51 -9 64 -12 47
-11 275 -13 315 -3 22 5 51 12 64 15 49 10 171 86 193 120 4 6 23 29 42 50 20
21 36 44 36 50 0 6 7 17 15 24 14 12 84 147 121 235 17 40 20 50 28 83 3 9 5
18 6 20 6 7 20 93 24 149 4 56 -11 147 -35 213 -25 67 -98 178 -143 218 -19
17 -32 33 -29 36 4 3 2 6 -3 6 -6 0 -19 8 -30 18 -66 60 -188 137 -314 198
-109 53 -369 155 -505 199 -27 8 -57 18 -65 22 -18 8 -17 7 -60 17 -19 5 -39
12 -45 16 -5 4 -23 10 -40 13 -16 4 -64 16 -105 27 -88 25 -104 29 -205 49
-119 23 -348 45 -359 34z"/>
<path d="M15547 14884 c-38 -7 -84 -18 -102 -24 -17 -6 -41 -12 -51 -14 -27
-6 -193 -64 -231 -82 -17 -8 -34 -14 -37 -14 -9 0 -319 -153 -326 -160 -3 -3
-53 -34 -112 -69 -60 -35 -108 -68 -108 -73 0 -5 -4 -7 -9 -3 -6 3 -14 -3 -20
-12 -6 -10 -11 -15 -11 -10 0 5 -108 -70 -165 -115 -5 -5 -28 -22 -50 -39
-226 -174 -467 -424 -575 -599 -19 -30 -37 -57 -41 -60 -12 -10 -138 -277
-139 -295 0 -3 -7 -22 -16 -43 -15 -36 -52 -149 -59 -181 -4 -17 -33 -146 -39
-171 -3 -14 -13 -81 -22 -145 -22 -166 -23 -549 0 -665 1 -8 6 -37 10 -65 12
-78 13 -85 30 -165 9 -41 21 -91 26 -110 6 -19 13 -42 15 -50 1 -8 15 -49 29
-90 15 -41 26 -76 26 -78 0 -1 7 -19 16 -40 22 -52 31 -76 33 -85 1 -9 84
-170 91 -177 3 -3 14 -22 25 -43 69 -132 310 -401 490 -545 62 -50 146 -112
150 -112 4 0 13 -6 20 -12 30 -27 44 -38 50 -38 3 0 27 -15 53 -32 49 -34 55
-38 157 -96 61 -35 196 -105 205 -107 3 0 35 -15 72 -32 74 -36 293 -123 308
-123 6 0 18 -4 28 -9 15 -9 141 -48 175 -55 7 -2 19 -6 27 -9 8 -3 29 -9 45
-13 17 -4 35 -8 40 -10 36 -10 295 -67 315 -69 14 -2 66 -10 115 -18 84 -14
121 -20 218 -32 20 -3 54 -7 75 -10 20 -3 62 -7 92 -10 30 -3 75 -7 100 -10
50 -6 175 -16 233 -18 20 -1 37 -6 37 -11 0 -4 6 -3 13 3 8 6 16 9 19 6 2 -3
47 -7 99 -10 52 -3 130 -8 174 -10 44 -3 132 -8 195 -11 63 -3 147 -7 185 -10
39 -2 111 -6 160 -9 164 -9 239 -14 295 -20 30 -3 82 -8 115 -10 119 -10 311
-35 385 -50 14 -2 50 -10 80 -15 119 -24 309 -84 428 -136 29 -13 53 -23 55
-22 5 2 187 -98 227 -126 82 -55 129 -94 123 -100 -4 -3 -2 -6 3 -6 17 0 84
-71 132 -138 23 -32 92 -166 97 -186 1 -6 4 -18 8 -26 25 -70 35 -156 32 -290
-2 -80 -6 -156 -9 -170 -24 -103 -32 -132 -56 -185 -38 -84 -90 -163 -147
-221 -48 -49 -122 -111 -152 -128 -9 -5 -18 -12 -21 -16 -8 -11 -141 -85 -197
-110 -29 -13 -53 -28 -53 -32 0 -5 -4 -7 -9 -4 -5 4 -38 -7 -73 -23 -34 -16
-74 -32 -88 -36 -14 -3 -34 -10 -45 -15 -11 -5 -49 -21 -85 -35 -170 -69 -313
-160 -388 -249 -54 -63 -103 -165 -133 -276 -18 -67 -23 -108 -22 -195 1 -60
3 -117 6 -125 2 -8 7 -28 11 -45 50 -204 223 -419 396 -494 30 -13 64 -28 75
-33 78 -35 302 -42 435 -12 41 9 84 18 95 19 11 2 21 4 23 5 1 2 7 4 12 5 6 1
12 4 15 5 3 1 8 3 13 4 6 2 87 26 102 31 3 1 21 9 40 17 19 9 38 14 42 12 5
-3 8 0 8 5 0 6 4 10 8 9 11 -4 205 84 214 97 4 5 8 7 8 3 0 -4 28 8 63 26 105
56 142 74 151 74 5 0 12 4 15 9 3 5 29 22 56 38 28 16 78 48 113 72 35 24 65
43 68 43 2 0 12 6 21 14 10 8 63 50 118 94 94 75 305 275 305 288 0 4 8 14 18
23 32 28 128 154 186 241 31 47 59 90 64 95 16 23 54 92 63 118 6 15 15 27 21
27 5 0 7 4 4 9 -3 4 1 17 9 27 8 10 15 25 15 33 0 8 6 22 14 30 7 9 18 30 24
46 6 17 20 55 32 85 12 30 22 60 23 65 2 6 7 24 13 40 21 56 35 105 40 133 3
15 7 34 10 42 3 8 8 25 10 38 2 12 7 34 10 50 3 15 9 46 13 70 4 23 9 45 9 47
3 8 3 8 7 55 2 25 6 75 9 110 9 97 9 233 1 345 -10 125 -12 150 -15 150 -1 0
-4 20 -6 45 -2 25 -6 54 -10 65 -3 11 -7 36 -10 55 -3 19 -8 42 -11 50 -7 18
-10 27 -16 63 -7 33 -8 37 -43 152 -15 50 -29 95 -33 100 -3 6 -6 15 -7 20 -4
27 -114 258 -126 266 -6 3 -9 9 -8 13 1 4 -19 39 -44 79 -59 93 -68 107 -83
123 -7 7 -13 17 -13 22 0 6 -3 12 -8 14 -4 2 -25 25 -47 53 -76 95 -320 328
-417 398 -24 17 -45 34 -48 38 -3 4 -48 36 -100 73 -52 36 -99 69 -105 73 -5
5 -23 15 -40 23 -16 8 -32 18 -35 21 -10 13 -228 122 -325 164 -98 42 -236 94
-265 100 -8 2 -28 9 -45 15 -16 6 -37 13 -45 15 -8 2 -35 9 -60 16 -50 14 -56
16 -85 23 -11 3 -38 10 -60 16 -22 6 -51 13 -65 16 -14 2 -66 13 -115 24 -50
11 -108 22 -130 25 -22 2 -40 5 -40 6 0 1 -9 3 -20 5 -11 1 -36 6 -55 9 -19 3
-48 8 -65 10 -16 2 -41 6 -55 9 -25 5 -101 16 -155 21 -16 2 -55 6 -85 10 -30
4 -71 8 -90 10 -19 2 -62 6 -95 9 -33 3 -87 8 -120 11 -33 2 -80 7 -105 9 -78
8 -222 17 -485 31 -44 3 -123 7 -175 10 -52 3 -124 7 -160 9 -36 1 -71 6 -78
10 -7 4 -12 2 -12 -4 0 -6 -5 -8 -12 -4 -6 4 -39 9 -72 10 -34 2 -86 6 -116 8
-30 3 -82 7 -115 10 -119 10 -235 24 -350 41 -16 3 -46 7 -65 10 -19 3 -47 7
-62 10 -16 3 -38 7 -50 9 -13 2 -61 14 -108 26 -47 12 -89 23 -95 25 -5 1 -17
5 -25 8 -8 3 -44 16 -80 27 -66 22 -112 41 -210 88 -59 28 -192 102 -200 111
-3 4 -23 19 -45 36 -121 89 -274 283 -289 365 -1 3 -9 25 -18 50 -32 84 -47
199 -43 330 2 69 5 134 8 145 26 94 42 141 50 146 4 3 9 13 10 21 9 56 185
252 292 323 33 22 66 46 73 53 8 7 30 22 51 33 20 11 54 31 76 44 22 13 146
77 275 142 129 65 237 120 240 123 3 3 25 16 50 29 101 55 209 149 258 226 21
33 75 152 80 178 1 4 2 8 3 10 8 28 22 147 22 192 0 49 -11 154 -17 164 -3 4
-7 19 -10 34 -7 42 -57 147 -97 207 -41 62 -131 160 -147 160 -6 0 -12 4 -14
8 -10 24 -204 126 -231 121 -1 0 -15 4 -30 10 -67 26 -223 33 -320 15z"/>
<path d="M6749 9046 c-2 -2 -29 -7 -59 -10 -30 -3 -64 -8 -75 -10 -39 -8 -115
-47 -115 -58 0 -6 -3 -9 -6 -5 -3 3 -11 2 -18 -4 -56 -46 -103 -88 -120 -105
-51 -51 -104 -112 -126 -144 -13 -19 -27 -37 -30 -40 -24 -22 -101 -188 -105
-228 -2 -20 -5 -37 -6 -37 -9 0 -13 -175 -4 -225 18 -105 111 -271 220 -395
20 -22 45 -51 56 -65 156 -187 820 -857 1165 -1177 155 -143 273 -250 343
-310 14 -13 29 -23 34 -23 4 0 7 -7 7 -15 0 -8 4 -14 9 -13 5 2 25 -12 45 -30
94 -85 239 -133 401 -133 28 0 61 2 75 5 54 10 95 18 105 21 6 2 21 6 35 11
32 10 168 81 185 97 8 6 38 32 68 57 61 52 135 144 178 224 37 68 90 211 82
220 -4 3 -2 6 3 6 6 0 11 10 11 23 1 12 3 49 6 81 6 90 -19 193 -64 266 -5 8
-13 24 -18 35 -8 18 -105 157 -131 187 -38 45 -65 78 -93 112 -18 21 -50 58
-72 81 -22 24 -78 85 -125 137 -183 200 -986 994 -1191 1178 -160 143 -159
142 -249 186 -100 49 -204 79 -304 89 -33 3 -62 7 -64 10 -2 2 -15 0 -29 -6
-16 -6 -22 -6 -18 1 6 10 2 14 -6 6z"/>
<path d="M14140 8173 c-30 -7 -62 -16 -70 -20 -8 -3 -19 -7 -25 -8 -25 -6
-131 -59 -137 -69 -4 -6 -8 -7 -8 -3 0 5 -13 -2 -28 -15 -16 -12 -44 -34 -62
-48 -31 -23 -44 -36 -99 -95 -40 -43 -128 -182 -136 -215 -1 -3 -7 -18 -14
-35 -39 -93 -57 -263 -38 -351 17 -78 86 -224 131 -277 11 -14 37 -44 56 -68
19 -24 41 -48 48 -53 7 -6 21 -18 30 -26 29 -25 124 -86 177 -112 79 -40 388
-157 455 -173 8 -2 58 -17 110 -33 128 -41 202 -63 220 -66 8 -2 22 -6 30 -9
8 -3 44 -14 80 -23 94 -23 104 -26 118 -26 6 -1 12 -5 12 -10 0 -5 4 -7 9 -4
4 3 23 1 42 -5 19 -5 52 -14 74 -19 22 -4 49 -11 60 -13 11 -3 40 -10 65 -17
25 -6 56 -13 70 -15 14 -2 45 -9 70 -14 25 -6 56 -13 70 -16 14 -3 40 -8 59
-11 36 -6 49 -8 126 -23 175 -34 291 -43 370 -27 22 4 46 8 53 9 6 0 12 4 12
9 0 4 7 8 15 8 8 0 23 4 33 10 40 22 158 73 165 72 4 -1 7 2 7 8 0 5 5 10 10
10 32 0 178 126 231 200 24 34 70 124 73 145 1 6 5 16 10 23 4 7 5 16 2 19 -3
3 -1 13 3 22 21 40 33 241 19 316 -16 87 -64 203 -108 260 -36 47 -150 153
-203 189 -72 47 -219 116 -312 145 -38 13 -77 25 -85 28 -8 3 -22 7 -30 8 -20
4 -253 61 -330 80 -81 21 -138 37 -150 42 -8 3 -24 8 -35 10 -11 2 -27 6 -35
10 -8 3 -19 7 -25 8 -5 2 -44 13 -85 26 -41 12 -80 24 -87 25 -6 1 -47 13 -90
27 -43 13 -125 39 -183 57 -58 18 -111 37 -119 44 -12 9 -13 8 -7 -2 6 -11 4
-11 -10 -3 -15 8 -100 36 -144 46 -3 1 -25 7 -50 14 -49 14 -71 20 -110 27
-14 2 -41 7 -60 10 -66 13 -185 11 -240 -3z"/>
</g>
</svg>
